<svg width="16" height="16" viewBox="0 0 16 16" fill="none" xmlns="http://www.w3.org/2000/svg">
<path d="M8.00007 9.42495C8.78708 9.42495 9.42507 8.78696 9.42507 7.99995C9.42507 7.21295 8.78708 6.57495 8.00007 6.57495C7.21307 6.57495 6.57507 7.21295 6.57507 7.99995C6.57507 8.78696 7.21307 9.42495 8.00007 9.42495Z" fill="#61DAFB"/>
<path d="M13.4125 5.64995C13.1375 5.54995 12.85 5.44995 12.55 5.36245C12.625 5.06245 12.6875 4.76245 12.7375 4.47495C13 2.82495 12.7125 1.66245 11.9125 1.21245C11.675 1.07495 11.4125 1.01245 11.1125 1.01245C10.2375 1.01245 9.12505 1.66245 8.00005 2.74995C6.87505 1.66245 5.76255 1.01245 4.88755 1.01245C4.58755 1.01245 4.32505 1.07495 4.08755 1.21245C3.28755 1.67495 3.00005 2.83745 3.26255 4.47495C3.31255 4.76245 3.37505 5.06245 3.45005 5.36245C3.15005 5.44995 2.86255 5.53745 2.58755 5.64995C1.02505 6.24995 0.175049 7.07495 0.175049 7.99995C0.175049 8.92495 1.03755 9.74995 2.58755 10.35C2.86255 10.45 3.15005 10.55 3.45005 10.6375C3.37505 10.9375 3.31255 11.2375 3.26255 11.525C3.00005 13.175 3.28755 14.3375 4.08755 14.7875C4.32505 14.925 4.58755 14.9875 4.88755 14.9875C5.77505 14.9875 6.88755 14.3375 8.00005 13.25C9.12505 14.3375 10.2375 14.9875 11.1125 14.9875C11.4125 14.9875 11.675 14.925 11.9125 14.7875C12.7125 14.325 13 13.1625 12.7375 11.525C12.6875 11.2375 12.625 10.9375 12.55 10.6375C12.85 10.55 13.1375 10.4625 13.4125 10.35C14.975 9.74995 15.825 8.92495 15.825 7.99995C15.825 7.07495 14.975 6.24995 13.4125 5.64995ZM11.5625 1.83745C12.075 2.13745 12.25 3.06245 12.0375 4.37495C12 4.63745 11.9375 4.91245 11.8625 5.19995C11.2125 5.04995 10.525 4.94995 9.80005 4.88745C9.37505 4.28745 8.93755 3.74995 8.50005 3.26245C9.42505 2.34995 10.3625 1.72495 11.125 1.72495C11.2875 1.72495 11.4375 1.76245 11.5625 1.83745ZM10.1625 9.24995C9.93755 9.64995 9.67505 10.05 9.40005 10.45C8.93755 10.4875 8.47505 10.5 8.00005 10.5C7.51255 10.5 7.05005 10.4875 6.60005 10.45C6.32505 10.05 6.07505 9.64995 5.85005 9.24995C5.61255 8.83745 5.38755 8.41245 5.18755 7.99995C5.38755 7.58745 5.61255 7.16245 5.85005 6.74995C6.07505 6.34995 6.33755 5.94995 6.61255 5.54995C7.07505 5.51245 7.53755 5.49995 8.01255 5.49995C8.50005 5.49995 8.96255 5.51245 9.41255 5.54995C9.68755 5.94995 9.93755 6.34995 10.1625 6.74995C10.4 7.16245 10.625 7.58745 10.825 7.99995C10.6125 8.41245 10.4 8.82495 10.1625 9.24995ZM11.2 8.83745C11.3875 9.27495 11.5375 9.69995 11.675 10.125C11.25 10.225 10.8 10.3 10.325 10.3625C10.475 10.125 10.6375 9.87495 10.775 9.61245C10.925 9.34995 11.0625 9.08745 11.2 8.83745ZM8.00005 12.225C7.70005 11.9 7.41255 11.55 7.13755 11.1875C7.42505 11.2 7.71255 11.2125 8.00005 11.2125C8.28755 11.2125 8.57505 11.2 8.86255 11.1875C8.58755 11.55 8.30005 11.9 8.00005 12.225ZM5.67505 10.35C5.20005 10.2875 4.75005 10.2125 4.32505 10.1125C4.46255 9.69995 4.61255 9.26245 4.80005 8.82495C4.93755 9.07495 5.07505 9.33745 5.22505 9.58745C5.37505 9.86245 5.52505 10.1 5.67505 10.35ZM4.80005 7.16245C4.61255 6.72495 4.46255 6.29995 4.32505 5.87495C4.75005 5.77495 5.20005 5.69995 5.67505 5.63745C5.52505 5.87495 5.36255 6.12495 5.22505 6.38745C5.07505 6.64995 4.93755 6.91245 4.80005 7.16245ZM8.00005 3.77495C8.30005 4.09995 8.58755 4.44995 8.86255 4.81245C8.57505 4.79995 8.28755 4.78745 8.00005 4.78745C7.71255 4.78745 7.42505 4.79995 7.13755 4.81245C7.41255 4.44995 7.70005 4.09995 8.00005 3.77495ZM10.775 6.39995L10.325 5.64995C10.8 5.71245 11.25 5.78745 11.675 5.88745C11.5375 6.29995 11.3875 6.73745 11.2 7.17495C11.0625 6.91245 10.925 6.64995 10.775 6.39995ZM3.96255 4.37495C3.75005 3.06245 3.92505 2.13745 4.43755 1.83745C4.56255 1.76245 4.71255 1.72495 4.87505 1.72495C5.62505 1.72495 6.56255 2.33745 7.50005 3.26245C7.06255 3.73745 6.62505 4.28745 6.20005 4.88745C5.47505 4.94995 4.78755 5.06245 4.13755 5.19995C4.06255 4.91245 4.01255 4.63745 3.96255 4.37495ZM0.875049 7.99995C0.875049 7.41245 1.58755 6.78745 2.83755 6.32495C3.08755 6.22495 3.36255 6.13745 3.63755 6.06245C3.83755 6.68745 4.08755 7.34995 4.38755 8.01245C4.08755 8.67495 3.82505 9.32495 3.63755 9.94995C1.91255 9.44995 0.875049 8.69995 0.875049 7.99995ZM4.43755 14.1625C3.92505 13.8625 3.75005 12.9375 3.96255 11.625C4.00005 11.3625 4.06255 11.0875 4.13755 10.8C4.78755 10.95 5.47505 11.05 6.20005 11.1125C6.62505 11.7125 7.06255 12.25 7.50005 12.7375C6.57505 13.65 5.63755 14.275 4.87505 14.275C4.71255 14.275 4.56255 14.2375 4.43755 14.1625ZM12.0375 11.625C12.25 12.9375 12.075 13.8625 11.5625 14.1625C11.4375 14.2375 11.2875 14.275 11.125 14.275C10.375 14.275 9.43755 13.6625 8.50005 12.7375C8.93755 12.2625 9.37505 11.7125 9.80005 11.1125C10.525 11.05 11.2125 10.9375 11.8625 10.8C11.9375 11.0875 11.9875 11.3625 12.0375 11.625ZM13.1625 9.67495C12.9125 9.77495 12.6375 9.86245 12.3625 9.93745C12.1625 9.31245 11.9125 8.64995 11.6125 7.98745C11.9125 7.32495 12.175 6.67495 12.3625 6.04995C14.0875 6.54995 15.125 7.29995 15.125 7.99995C15.125 8.58745 14.4 9.21245 13.1625 9.67495Z" fill="#61DAFB"/>
</svg>
