<svg width="16" height="16" viewBox="0 0 16 16" fill="none" xmlns="http://www.w3.org/2000/svg">
<g clip-path="url(#clip0_99_118)">
<path d="M15.5921 7.29716L8.70263 0.407914C8.30613 0.0111641 7.66263 0.0111641 7.2655 0.407914L5.835 1.83866L7.64975 3.65341C8.07163 3.51104 8.55513 3.60654 8.89125 3.94266C9.22913 4.28091 9.32388 4.76854 9.178 5.19179L10.927 6.94091C11.3501 6.79504 11.8385 6.88929 12.1763 7.22779C12.6488 7.69991 12.6488 8.46529 12.1763 8.93766C12.064 9.05 11.9306 9.13912 11.7839 9.19992C11.6372 9.26072 11.4799 9.29202 11.3211 9.29202C11.1622 9.29202 11.005 9.26072 10.8582 9.19992C10.7115 9.13912 10.5782 9.05 10.4659 8.93766C10.2972 8.76883 10.1822 8.5539 10.1354 8.31989C10.0886 8.08589 10.112 7.84327 10.2028 7.62254L8.57175 5.99154L8.5715 10.2842C8.68985 10.3424 8.79789 10.4196 8.89138 10.5127C9.36363 10.9848 9.36363 11.7499 8.89138 12.223C8.419 12.6952 7.65338 12.6952 7.1815 12.223C6.70925 11.75 6.70925 10.9849 7.1815 10.5127C7.29475 10.3995 7.4293 10.3098 7.57738 10.2489V5.91654C7.42913 5.85588 7.29453 5.76616 7.1815 5.65266C6.82375 5.29516 6.73763 4.77016 6.92113 4.33066L5.132 2.54154L0.408002 7.26529C0.217416 7.45593 0.110352 7.71447 0.110352 7.98404C0.110352 8.25361 0.217416 8.51214 0.408002 8.70279L7.29763 15.592C7.69438 15.9888 8.33763 15.9888 8.735 15.592L15.5923 8.73479C15.7828 8.54409 15.8898 8.28553 15.8898 8.01595C15.8898 7.74637 15.7827 7.48783 15.5921 7.29716Z" fill="#F34F29"/>
</g>
<defs>
<clipPath id="clip0_99_118">
<rect width="16" height="16" fill="white"/>
</clipPath>
</defs>
</svg>
